P3
4 3
255
31 253 13 31 253 13 31 253 13 31 253 13
252 25 63 252 25 63 252 25 63 9 9 9
252 25 63 252 25 63 224 224 224 255 255 255
